<svg width="20" height="20" viewBox="0 0 20 20" fill="none" xmlns="http://www.w3.org/2000/svg">
<path d="M19.4581 18.8862L14.1403 13.5662C15.4587 12.0227 16.1282 10.0286 16.0084 8.00225C15.8886 5.97587 14.9889 4.07459 13.4979 2.69714C12.0068 1.31969 10.0404 0.573078 8.01086 0.613894C5.98135 0.65471 4.04649 1.47978 2.61205 2.91607C1.17761 4.35235 0.355028 6.28828 0.316822 8.31783C0.278617 10.3474 1.02775 12.3129 2.40712 13.8021C3.78649 15.2914 5.68893 16.1887 7.71546 16.3059C9.74199 16.423 11.7352 15.751 13.277 14.4306L18.5936 19.7506C18.6493 19.8117 18.7168 19.8608 18.792 19.895C18.8672 19.9292 18.9485 19.9478 19.0311 19.9497C19.1137 19.9516 19.1958 19.9367 19.2725 19.906C19.3492 19.8753 19.4188 19.8293 19.4772 19.7709C19.5357 19.7125 19.5816 19.6428 19.6124 19.5661C19.6431 19.4895 19.658 19.4073 19.6561 19.3248C19.6542 19.2422 19.6356 19.1608 19.6013 19.0856C19.5671 19.0104 19.518 18.943 19.457 18.8873L19.4581 18.8862ZM1.58587 8.48284C1.58675 7.17636 1.97497 5.89946 2.70145 4.81359C3.42793 3.72771 4.46006 2.88161 5.66735 2.38225C6.87464 1.88289 8.20288 1.75269 9.48415 2.00811C10.7654 2.26353 11.9422 2.8931 12.8657 3.81724C13.7892 4.74138 14.418 5.91858 14.6726 7.20003C14.9271 8.48147 14.796 9.80962 14.2959 11.0166C13.7957 12.2235 12.9489 13.2551 11.8625 13.9808C10.7762 14.7066 9.49902 15.094 8.19253 15.094C6.44056 15.0907 4.76133 14.393 3.52292 13.1538C2.2845 11.9145 1.58792 10.2348 1.58587 8.48284Z" fill="#86868B"/>
</svg>
