<svg width="15" height="15" viewBox="0 0 15 15" fill="none" xmlns="http://www.w3.org/2000/svg">
<path d="M13.9487 13.3428L10.4487 9.84283C11.3304 8.763 11.7636 7.38571 11.6586 5.9956C11.5537 4.60548 10.9187 3.30881 9.88494 2.37357C8.85114 1.43833 7.49754 0.936 6.1039 0.970408C4.71025 1.00482 3.38309 1.57333 2.39671 2.55845C1.41032 3.54357 0.840098 4.87 0.803898 6.26359C0.767698 7.65719 1.26828 9.01143 2.2022 10.0464C3.13611 11.0814 4.43196 11.7181 5.82194 11.8248C7.21192 11.9315 8.58977 11.5001 9.67073 10.6198L13.1707 14.1198C13.2218 14.1709 13.2825 14.2114 13.3492 14.2391C13.4159 14.2667 13.4875 14.281 13.5597 14.281C13.632 14.281 13.7035 14.2667 13.7703 14.2391C13.837 14.2114 13.8976 14.1709 13.9487 14.1198C13.9998 14.0687 14.0403 14.0081 14.068 13.9414C14.0956 13.8746 14.1099 13.8031 14.1099 13.7308C14.1099 13.6586 14.0956 13.5871 14.068 13.5203C14.0403 13.4536 13.9998 13.3929 13.9487 13.3418V13.3428ZM1.92773 6.41783C1.92793 5.56366 2.1814 4.72872 2.6561 4.0186C3.1308 3.30847 3.8054 2.75505 4.59461 2.42831C5.38382 2.10157 6.2522 2.01618 7.08994 2.18294C7.92767 2.34971 8.69715 2.76113 9.30108 3.36519C9.905 3.96926 10.3162 4.73883 10.4828 5.57661C10.6494 6.41438 10.5638 7.28274 10.2369 8.07187C9.90994 8.86101 9.35637 9.53549 8.64613 10.01C7.9359 10.4846 7.1009 10.7378 6.24673 10.7378C5.10141 10.7368 4.00332 10.2813 3.19355 9.4713C2.38378 8.66135 1.92852 7.56315 1.92773 6.41783Z" fill="white"/>
</svg>
